<?xml version="1.0" encoding="utf-8"?>
<!-- Generator: Adobe Illustrator 14.0.0, SVG Export Plug-In  -->
<!DOCTYPE svg PUBLIC "-//W3C//DTD SVG 1.1//EN" "http://www.w3.org/Graphics/SVG/1.1/DTD/svg11.dtd" [
	<!ENTITY ns_flows "http://ns.adobe.com/Flows/1.0/">
]>
<svg version="1.1"
	 xmlns="http://www.w3.org/2000/svg" xmlns:xlink="http://www.w3.org/1999/xlink" xmlns:a="http://ns.adobe.com/AdobeSVGViewerExtensions/3.0/"
	 x="0px" y="0px" width="24px" height="24px" viewBox="0 0 24 24" enable-background="new 0 0 24 24" xml:space="preserve">
<defs>
</defs>
<rect fill="none" width="24" height="24"/>
<polygon fill="none" points="22,22 2,22 2,2 22,2 "/>
<path d="M7.408,9.259h1.547c-0.27,1.672-0.404,2.826-0.404,3.463c0,0.395,0.037,0.692,0.111,0.891s0.256,0.299,0.545,0.299
	c0.34,0,0.613-0.193,0.82-0.578c0.207-0.384,0.311-0.911,0.311-1.579c0-1.207-0.291-2.14-0.873-2.798S8.055,7.97,6.98,7.97
	c-1.133,0-2.053,0.347-2.76,1.04S3.16,10.666,3.16,11.896c0,1.375,0.327,2.405,0.981,3.09s1.636,1.029,2.944,1.029
	c0.754,0,1.537-0.145,2.35-0.434v0.938c-0.309,0.121-0.696,0.225-1.163,0.311s-0.882,0.129-1.245,0.129
	c-1.539,0-2.762-0.434-3.668-1.299S2,13.561,2,11.955c0-1.008,0.209-1.882,0.627-2.622s1.01-1.308,1.775-1.702
	s1.615-0.592,2.549-0.592c1.43,0,2.531,0.407,3.305,1.222s1.16,1.958,1.16,3.431c0,0.969-0.216,1.721-0.647,2.258
	s-1.011,0.807-1.737,0.807c-0.348,0-0.648-0.104-0.902-0.311s-0.422-0.496-0.504-0.867c-0.367,0.785-0.891,1.178-1.57,1.178
	c-0.484,0-0.882-0.191-1.192-0.572s-0.466-0.906-0.466-1.579c0-1.047,0.273-1.866,0.82-2.458S6.494,9.259,7.408,9.259z
	 M7.408,11.896l0.217-1.775H7.232c-0.473,0-0.865,0.212-1.178,0.636s-0.469,1.009-0.469,1.755c0,0.512,0.063,0.874,0.19,1.084
	s0.327,0.316,0.601,0.316C6.9,13.912,7.244,13.24,7.408,11.896z"/>
<path d="M20.403,16.689c-0.182-0.182-0.272-0.402-0.272-0.66s0.091-0.475,0.272-0.656c0.182-0.178,0.401-0.27,0.659-0.27
	c0.262,0,0.483,0.092,0.665,0.27C21.909,15.555,22,15.771,22,16.029c0,0.256-0.092,0.475-0.275,0.656
	c-0.184,0.184-0.404,0.275-0.662,0.275S20.585,16.871,20.403,16.689z"/>
<path d="M15.698,9.057c-0.445,0-0.779,0.099-1.002,0.293c-0.223,0.196-0.334,0.489-0.334,0.879c0,0.188,0.046,0.38,0.138,0.574
	c0.092,0.196,0.331,0.48,0.718,0.855c0.367,0.349,0.639,0.667,0.814,0.955c0.176,0.29,0.264,0.632,0.264,1.025v0.615h-1.488v-0.533
	c0-0.236-0.062-0.447-0.188-0.629c-0.125-0.181-0.372-0.456-0.744-0.824c-0.507-0.507-0.829-0.914-0.964-1.221
	s-0.202-0.607-0.202-0.9c0-0.694,0.233-1.22,0.7-1.576c0.467-0.354,1.143-0.533,2.024-0.533c0.531,0,1.135,0.093,1.811,0.275v1.008
	C16.647,9.145,16.132,9.057,15.698,9.057z M14.898,16.689c-0.182-0.182-0.272-0.402-0.272-0.66s0.091-0.475,0.27-0.656
	c0.18-0.178,0.398-0.27,0.656-0.27s0.478,0.092,0.656,0.27c0.18,0.182,0.27,0.398,0.27,0.656s-0.09,0.479-0.27,0.66
	c-0.179,0.182-0.398,0.271-0.656,0.271C15.298,16.961,15.08,16.871,14.898,16.689z"/>
</svg>
