<?xml version="1.0" encoding="utf-8"?>
<!-- Generator: Adobe Illustrator 14.0.0, SVG Export Plug-In  -->
<!DOCTYPE svg PUBLIC "-//W3C//DTD SVG 1.1//EN" "http://www.w3.org/Graphics/SVG/1.1/DTD/svg11.dtd" [
	<!ENTITY ns_flows "http://ns.adobe.com/Flows/1.0/">
]>
<svg version="1.1"
	 xmlns="http://www.w3.org/2000/svg" xmlns:xlink="http://www.w3.org/1999/xlink" xmlns:a="http://ns.adobe.com/AdobeSVGViewerExtensions/3.0/"
	 x="0px" y="0px" width="48px" height="24px" viewBox="0 0 48 24" enable-background="new 0 0 48 24" xml:space="preserve">
<defs>
</defs>
<rect fill="none" width="48" height="24"/>
<polygon points="41.865,7.944 46,12 41.865,16.057 "/>
<path d="M35.072,5.766l-0.367,0.021c-0.09,0.753-0.221,1.273-0.393,1.56c-0.303,0.527-0.855,0.792-1.646,0.792
	c-0.752,0-1.465-0.296-2.139-0.887c-0.371-0.322-0.791-0.818-1.27-1.488l-0.691,2.11c0.932,1.151,1.629,2.159,2.096,3.027
	c0.465,0.864,0.871,1.882,1.211,3.045c0.178,0.598,0.537,2.025,1.078,4.291h0.314c0-0.043,0.006-0.307,0.021-0.805
	c0.016-0.49,0.023-0.846,0.023-1.063c0-1.246-0.051-2.238-0.15-2.982c-0.1-0.739-0.246-1.384-0.436-1.939
	c-0.113-0.329-0.307-0.773-0.576-1.331c0.398,0.055,0.645,0.082,0.736,0.082c0.738,0,1.311-0.252,1.717-0.758
	c0.369-0.463,0.555-1.078,0.555-1.852c0-0.316-0.006-0.64-0.021-0.965C35.119,6.299,35.098,6.012,35.072,5.766z"/>
<path d="M16.327,10.237c-0.25-0.898-0.615-1.748-1.097-2.555C14.89,7.119,14.439,6.5,13.878,5.834l-1.036,2.277
	c0.527,0.631,0.934,1.17,1.218,1.617c0.564,0.881,1.005,1.821,1.325,2.824c0.414,1.288,0.62,2.67,0.62,4.153
	c-0.029,0.809-0.044,1.293-0.044,1.459h0.365c0.178-1.26,0.277-1.992,0.299-2.195c0.099-0.832,0.149-1.564,0.149-2.193
	C16.775,12.479,16.626,11.301,16.327,10.237z"/>
<path d="M20.211,18.526l5.023-13.053h1.225l-5.042,13.053H20.211z"/>
</svg>
