<?xml version="1.0" encoding="utf-8"?>
<!-- Generator: Adobe Illustrator 14.0.0, SVG Export Plug-In  -->
<!DOCTYPE svg PUBLIC "-//W3C//DTD SVG 1.1//EN" "http://www.w3.org/Graphics/SVG/1.1/DTD/svg11.dtd" [
	<!ENTITY ns_flows "http://ns.adobe.com/Flows/1.0/">
]>
<svg version="1.1"
	 xmlns="http://www.w3.org/2000/svg" xmlns:xlink="http://www.w3.org/1999/xlink" xmlns:a="http://ns.adobe.com/AdobeSVGViewerExtensions/3.0/"
	 x="0px" y="0px" width="48px" height="24px" viewBox="0 0 48 24" enable-background="new 0 0 48 24" xml:space="preserve">
<defs>
</defs>
<rect fill="none" width="48" height="24"/>
<polygon points="6.135,7.944 2,12 6.135,16.056 "/>
<path d="M35.072,5.766l-0.367,0.021c-0.09,0.753-0.221,1.273-0.393,1.56c-0.303,0.527-0.855,0.792-1.646,0.792
	c-0.752,0-1.465-0.296-2.139-0.887c-0.371-0.322-0.791-0.818-1.27-1.488l-0.691,2.11c0.932,1.151,1.629,2.159,2.096,3.027
	c0.465,0.864,0.871,1.882,1.211,3.046c0.178,0.596,0.537,2.025,1.078,4.291h0.314c0-0.043,0.006-0.309,0.021-0.805
	c0.016-0.49,0.023-0.848,0.023-1.063c0-1.246-0.051-2.238-0.15-2.982c-0.1-0.74-0.246-1.385-0.436-1.94
	c-0.113-0.329-0.307-0.773-0.576-1.331c0.398,0.055,0.645,0.082,0.736,0.082c0.738,0,1.311-0.252,1.717-0.758
	c0.369-0.463,0.555-1.078,0.555-1.852c0-0.316-0.006-0.64-0.021-0.965C35.119,6.299,35.098,6.012,35.072,5.766z"/>
<path d="M20.211,18.527l5.023-13.054h1.225l-5.042,13.054H20.211z"/>
<path d="M19.348,5.766l-0.366,0.021c-0.091,0.753-0.222,1.273-0.393,1.56c-0.304,0.527-0.856,0.792-1.647,0.792
	c-0.752,0-1.465-0.296-2.138-0.887c-0.371-0.322-0.792-0.818-1.269-1.488l-0.692,2.11c0.932,1.151,1.629,2.159,2.095,3.027
	c0.466,0.864,0.871,1.882,1.212,3.046c0.177,0.596,0.536,2.025,1.077,4.291h0.315c0-0.043,0.006-0.309,0.022-0.805
	c0.014-0.49,0.023-0.848,0.023-1.063c0-1.246-0.052-2.238-0.151-2.982c-0.099-0.74-0.246-1.385-0.437-1.94
	c-0.113-0.329-0.305-0.773-0.576-1.331c0.399,0.055,0.646,0.082,0.737,0.082c0.739,0,1.311-0.252,1.716-0.758
	c0.37-0.463,0.556-1.078,0.556-1.852c0-0.316-0.006-0.64-0.022-0.965C19.395,6.299,19.375,6.012,19.348,5.766z"/>
</svg>
