<?xml version="1.0" encoding="utf-8"?>
<!-- Generator: Adobe Illustrator 14.0.0, SVG Export Plug-In  -->
<!DOCTYPE svg PUBLIC "-//W3C//DTD SVG 1.1//EN" "http://www.w3.org/Graphics/SVG/1.1/DTD/svg11.dtd" [
	<!ENTITY ns_flows "http://ns.adobe.com/Flows/1.0/">
]>
<svg version="1.1"
	 xmlns="http://www.w3.org/2000/svg" xmlns:xlink="http://www.w3.org/1999/xlink" xmlns:a="http://ns.adobe.com/AdobeSVGViewerExtensions/3.0/"
	 x="0px" y="0px" width="24px" height="24px" viewBox="0 0 24 24" enable-background="new 0 0 24 24" xml:space="preserve">
<defs>
</defs>
<polygon fill="none" points="22,22.001 2,22.001 2,1.999 22,1.999 "/>
<rect fill="none" width="24" height="24"/>
<path fill="#FFFDFD" d="M20.756,21.087l-2.26-10.469c-0.033-0.15-0.115-0.281-0.23-0.373c0,0-6.611-7.95-6.68-7.998
	c-0.116-0.083-0.255-0.129-0.395-0.129c-0.068,0-0.137,0.011-0.202,0.034c0,0-3.022,1.072-3.081,1.12L5.072,5.577
	C5.016,5.624,3.326,8.34,3.326,8.34C3.262,8.444,3.229,8.563,3.229,8.685c0,0.155,0.055,0.328,0.156,0.447l6.976,8.255
	c0.101,0.118,0.236,0.195,0.384,0.222l9.094,4.213c0.088,0.041,0.184,0.061,0.277,0.061c0.146,0,0.291-0.049,0.41-0.145
	C20.719,21.582,20.809,21.33,20.756,21.087z"/>
<path fill-opacity="0.5" d="M16.607,19.548l3.508,1.677l-0.943-4.046C19.172,17.177,18.579,18.808,16.607,19.548z"/>
<path fill="#E5E5E5" d="M16.607,19.548c1.972-0.74,2.564-2.371,2.564-2.369l0.943,4.046l-2.262-10.468l-1.233,3.125l-2.618,2.268
	l-3.141,0.79l9.254,4.285L16.607,19.548z"/>
<polygon fill="#E5E5E5" points="6.465,7.337 9.238,5.026 11.206,2.772 8.322,3.781 5.486,6.087 3.885,8.685 6.452,7.323 "/>
<polygon fill="#CCCCCC" points="11.206,2.793 9.238,5.047 16.62,13.902 17.854,10.777 "/>
<polygon fill-opacity="0.3" points="9.225,5.036 6.451,7.348 13.988,16.159 16.607,13.892 "/>
<polygon fill-opacity="0.5" points="6.465,7.36 6.452,7.347 3.885,8.708 10.861,16.962 14.002,16.173 "/>
</svg>
