<?xml version="1.0" encoding="utf-8"?>
<!-- Generator: Adobe Illustrator 14.0.0, SVG Export Plug-In  -->
<!DOCTYPE svg PUBLIC "-//W3C//DTD SVG 1.1//EN" "http://www.w3.org/Graphics/SVG/1.1/DTD/svg11.dtd" [
	<!ENTITY ns_flows "http://ns.adobe.com/Flows/1.0/">
]>
<svg version="1.1"
	 xmlns="http://www.w3.org/2000/svg" xmlns:xlink="http://www.w3.org/1999/xlink" xmlns:a="http://ns.adobe.com/AdobeSVGViewerExtensions/3.0/"
	 x="0px" y="0px" width="48px" height="24px" viewBox="0 0 48 24" enable-background="new 0 0 48 24" xml:space="preserve">
<defs>
</defs>
<rect fill="none" width="48" height="24"/>
<path d="M37.436,5.763h-0.365c-0.145,1.169-0.584,1.751-1.328,1.751c-0.369,0-0.648-0.128-0.848-0.39
	c-0.201-0.258-0.326-0.712-0.383-1.361h-0.365c-0.115,0.649-0.316,1.145-0.609,1.498c-0.342,0.408-0.813,0.612-1.42,0.612
	c-0.582,0-1.111-0.17-1.59-0.512c-0.426-0.305-0.824-0.758-1.193-1.358l-0.768,2.494c0.93,1.349,1.576,2.375,1.945,3.082
	c0.482,0.932,0.822,1.889,1.021,2.872c0.197,0.987,0.299,2.247,0.299,3.786h0.438c0.17-1.07,0.275-1.81,0.316-2.218
	c0.037-0.411,0.055-0.835,0.055-1.276c0-0.789-0.055-1.465-0.166-2.021c-0.111-0.561-0.27-1.087-0.477-1.587
	c-0.117-0.271-0.307-0.665-0.57-1.176c0.521,0,0.967-0.097,1.338-0.298c0.373-0.201,0.678-0.5,0.922-0.896
	c0.143,0.259,0.363,0.451,0.664,0.576c0.299,0.127,0.652,0.188,1.061,0.188c0.705,0,1.23-0.231,1.568-0.694
	c0.34-0.463,0.51-1.133,0.51-2.01c0-0.042-0.012-0.192-0.027-0.448C37.444,6.122,37.436,5.918,37.436,5.763z"/>
<polygon points="41.866,7.944 46,12 41.866,16.056 "/>
<polygon points="6.135,7.944 2,12 6.135,16.056 "/>
<path d="M20.211,18.527l5.023-13.054h1.225l-5.042,13.054H20.211z"/>
<path d="M17.889,5.693l-0.366,0.021c-0.091,0.753-0.222,1.273-0.393,1.56c-0.304,0.527-0.856,0.792-1.647,0.792
	c-0.752,0-1.465-0.296-2.138-0.887c-0.371-0.322-0.792-0.818-1.269-1.488l-0.692,2.11c0.932,1.151,1.629,2.159,2.095,3.027
	c0.466,0.864,0.871,1.882,1.212,3.046c0.177,0.596,0.536,2.025,1.077,4.291h0.315c0-0.043,0.006-0.309,0.022-0.805
	c0.014-0.49,0.023-0.848,0.023-1.063c0-1.246-0.052-2.238-0.151-2.982c-0.099-0.74-0.246-1.385-0.437-1.94
	c-0.113-0.329-0.305-0.773-0.576-1.331c0.399,0.055,0.646,0.082,0.737,0.082c0.739,0,1.311-0.252,1.716-0.758
	c0.37-0.463,0.556-1.078,0.556-1.852c0-0.316-0.006-0.64-0.022-0.965C17.936,6.227,17.916,5.939,17.889,5.693z"/>
</svg>
