<?xml version="1.0" encoding="utf-8"?>
<!-- Generator: Adobe Illustrator 14.0.0, SVG Export Plug-In  -->
<!DOCTYPE svg PUBLIC "-//W3C//DTD SVG 1.1//EN" "http://www.w3.org/Graphics/SVG/1.1/DTD/svg11.dtd" [
	<!ENTITY ns_flows "http://ns.adobe.com/Flows/1.0/">
]>
<svg version="1.1"
	 xmlns="http://www.w3.org/2000/svg" xmlns:xlink="http://www.w3.org/1999/xlink" xmlns:a="http://ns.adobe.com/AdobeSVGViewerExtensions/3.0/"
	 x="0px" y="0px" width="48px" height="24px" viewBox="0 0 48 24" enable-background="new 0 0 48 24" xml:space="preserve">
<defs>
</defs>
<rect fill="none" width="48" height="24"/>
<polygon points="6.135,7.944 2,12 6.135,16.057 "/>
<path d="M20.211,18.526l5.023-13.054h1.225l-5.042,13.054H20.211z"/>
<path d="M20.253,5.69h-0.366c-0.143,1.169-0.583,1.751-1.328,1.751c-0.369,0-0.649-0.128-0.847-0.39
	c-0.201-0.258-0.326-0.712-0.384-1.361h-0.365c-0.114,0.649-0.316,1.145-0.609,1.498c-0.341,0.408-0.813,0.612-1.419,0.612
	c-0.582,0-1.112-0.17-1.589-0.512c-0.427-0.305-0.826-0.758-1.195-1.358l-0.767,2.494c0.929,1.349,1.577,2.375,1.946,3.082
	c0.481,0.932,0.822,1.888,1.02,2.872c0.198,0.987,0.299,2.248,0.299,3.786h0.438c0.17-1.069,0.274-1.81,0.315-2.218
	c0.038-0.41,0.056-0.834,0.056-1.275c0-0.789-0.055-1.465-0.166-2.022c-0.111-0.561-0.27-1.087-0.478-1.587
	c-0.116-0.271-0.307-0.665-0.57-1.176c0.521,0,0.966-0.097,1.338-0.298c0.372-0.201,0.678-0.5,0.922-0.896
	c0.142,0.259,0.363,0.451,0.664,0.576c0.3,0.127,0.653,0.188,1.062,0.188c0.705,0,1.23-0.231,1.568-0.694
	c0.338-0.463,0.508-1.133,0.508-2.01c0-0.042-0.01-0.192-0.027-0.448C20.262,6.05,20.253,5.846,20.253,5.69z"/>
<path d="M37.436,5.763H37.07c-0.144,1.169-0.584,1.751-1.328,1.751c-0.369,0-0.648-0.128-0.847-0.39
	c-0.201-0.258-0.326-0.712-0.384-1.361h-0.365c-0.115,0.649-0.316,1.145-0.609,1.498c-0.341,0.408-0.813,0.612-1.42,0.612
	c-0.581,0-1.111-0.17-1.589-0.512c-0.427-0.305-0.825-0.758-1.194-1.358l-0.768,2.494c0.93,1.349,1.576,2.375,1.946,3.082
	c0.481,0.932,0.822,1.888,1.021,2.872c0.197,0.987,0.299,2.248,0.299,3.786h0.438c0.171-1.069,0.275-1.81,0.316-2.218
	c0.037-0.41,0.056-0.834,0.056-1.275c0-0.789-0.056-1.465-0.166-2.022c-0.111-0.561-0.271-1.087-0.478-1.587
	c-0.116-0.271-0.307-0.665-0.57-1.176c0.521,0,0.967-0.097,1.338-0.298c0.373-0.201,0.678-0.5,0.922-0.896
	c0.143,0.259,0.363,0.451,0.664,0.576c0.3,0.127,0.653,0.188,1.062,0.188c0.705,0,1.23-0.231,1.568-0.694
	c0.339-0.463,0.509-1.133,0.509-2.01c0-0.042-0.011-0.192-0.027-0.448C37.444,6.122,37.436,5.918,37.436,5.763z"/>
</svg>
