<?xml version="1.0" encoding="UTF-8"?>
<!DOCTYPE svg PUBLIC "-//W3C//DTD SVG 1.1 Tiny//EN" "http://www.w3.org/Graphics/SVG/1.1/DTD/svg11-tiny.dtd">
<svg baseProfile="tiny" height="24px" version="1.1" viewBox="0 0 24 24" width="24px" x="0px" xmlns="http://www.w3.org/2000/svg" xmlns:xlink="http://www.w3.org/1999/xlink" y="0px">
<g>
<g>
<rect fill="none" height="24" width="24"/>
<polygon fill="none" points="22,22 2,22 2,2 22,2   "/>
</g>
<g>
<path d="M19.245,15.891c-1.527,0-2.768,1.209-2.768,2.699s1.238,2.699,2.768,2.699c1.527,0,2.768-1.209,2.768-2.699    S20.772,15.891,19.245,15.891z M19.244,20.29c-0.974,0-1.767-0.76-1.767-1.698s0.793-1.699,1.767-1.699    c0.976,0,1.769,0.763,1.769,1.699C21.011,19.53,20.22,20.29,19.244,20.29z"/>
<path d="M14.396,16.901c0-0.968-0.799-1.752-1.783-1.752s-1.784,0.784-1.784,1.752c0,0.969,0.8,1.752,1.784,1.752    c0.037,0,0.072-0.009,0.109-0.011c-0.256,0.796-0.555,1.416-0.896,1.854c-0.359,0.459-0.736,0.836-1.13,1.131    c-0.396,0.295-0.329,0.41,0.194,0.346c0.524-0.064,1.131-0.475,1.818-1.229c0.689-0.756,1.164-1.541,1.426-2.358    C14.267,17.972,14.396,17.024,14.396,16.901z"/>
<rect height="25.829" transform="matrix(0.7071 0.7071 -0.7071 0.7071 11.8711 -4.8775)" width="0.975" x="11.336" y="-1.024"/>
<path d="M10.705,5.079H8.386V2.411h2.319V5.079z"/>
<path d="M5.563,2.411L3.591,7.245h-1.56l0.901-4.833H5.563z"/>
</g>
</g>
</svg>
