<?xml version="1.0" encoding="UTF-8"?>
<!DOCTYPE svg PUBLIC "-//W3C//DTD SVG 1.1 Tiny//EN" "http://www.w3.org/Graphics/SVG/1.1/DTD/svg11-tiny.dtd">
<svg baseProfile="tiny" height="24px" version="1.1" viewBox="0 0 24 24" width="24px" x="0px" xmlns="http://www.w3.org/2000/svg" xmlns:xlink="http://www.w3.org/1999/xlink" y="0px">
<g>
<g>
<rect fill="none" height="24" width="24"/>
<polygon fill="none" points="22,22 2,22 2,2 22,2   "/>
</g>
<g>
<path d="M22.001,19.164h-2.319v-2.668h2.319V19.164z"/>
<path d="M16.859,16.496l-1.973,4.833h-1.559l0.9-4.833H16.859z"/>
<rect height="25.829" transform="matrix(0.7071 0.7071 -0.7071 0.7071 11.8694 -4.8778)" width="0.975" x="11.335" y="-1.026"/>
<path d="M10.806,3.155c-1.527,0-2.768,1.209-2.768,2.699c0,1.49,1.239,2.699,2.768,2.699c1.527,0,2.768-1.209,2.768-2.699    C13.574,4.364,12.333,3.155,10.806,3.155z M10.805,7.553c-0.974,0-1.767-0.761-1.767-1.699s0.793-1.699,1.767-1.699    c0.976,0,1.769,0.762,1.769,1.699C12.572,6.792,11.781,7.553,10.805,7.553z"/>
<path d="M5.956,4.164c0-0.968-0.799-1.752-1.783-1.752c-0.985,0-1.784,0.784-1.784,1.752c0,0.968,0.799,1.752,1.784,1.752    c0.037,0,0.072-0.009,0.109-0.011C4.026,6.701,3.728,7.321,3.386,7.759c-0.36,0.459-0.737,0.836-1.13,1.133    C1.86,9.185,1.927,9.3,2.451,9.235c0.524-0.063,1.13-0.475,1.818-1.229c0.69-0.755,1.164-1.541,1.426-2.358    C5.828,5.236,5.956,4.287,5.956,4.164z"/>
</g>
</g>
</svg>
