<?xml version="1.0" encoding="UTF-8"?>
<!DOCTYPE svg PUBLIC "-//W3C//DTD SVG 1.1 Tiny//EN" "http://www.w3.org/Graphics/SVG/1.1/DTD/svg11-tiny.dtd">
<svg baseProfile="tiny" height="50px" version="1.1" viewBox="0 0 40 50" width="40px" x="0px" xmlns="http://www.w3.org/2000/svg" xmlns:xlink="http://www.w3.org/1999/xlink" y="0px">
<g>
<rect fill="none" height="50" width="40"/>
<g>
<path d="M38.199,49.5H1.801c-0.719,0-1.301-0.712-1.301-1.591L0.542,2.09c0-0.878,0.581-1.59,1.3-1.59h29.859    c0.716,0,1.3,0.712,1.3,1.59L39.5,47.909C39.5,48.788,38.916,49.5,38.199,49.5L38.199,49.5z" fill="#CCCCCC"/>
<path d="M38.199,49.001H1.801c-0.436,0-0.802-0.501-0.802-1.093L1.042,2.09C1.042,1.499,1.409,1,1.842,1h29.859    c0.433,0,0.8,0.499,0.8,1.091l6.503,45.888C39,48.5,38.633,49.001,38.199,49.001L38.199,49.001z" fill="#E6E6E6"/>
<polygon fill="#E6E6E6" points="37.623,47.411 2.3,47.411 2.341,2.59 31.266,2.59 37.623,47.411   "/>
</g>
</g>
</svg>
