<?xml version="1.0" encoding="UTF-8"?>
<!DOCTYPE svg PUBLIC "-//W3C//DTD SVG 1.1 Tiny//EN" "http://www.w3.org/Graphics/SVG/1.1/DTD/svg11-tiny.dtd">
<svg baseProfile="tiny" height="50px" version="1.1" viewBox="0 0 40 50" width="40px" x="0px" xmlns="http://www.w3.org/2000/svg" xmlns:xlink="http://www.w3.org/1999/xlink" y="0px">
<g>
<rect fill="none" height="50" width="40"/>
<g>
<g>
<path d="M38.197,0.5H1.801C1.083,0.5,0.5,1.212,0.5,2.09l6.497,45.819c0,0.877,0.583,1.591,1.301,1.591h23.33     c0.72,0,1.302-0.713,1.302-1.591L39.5,2.09C39.5,1.212,38.915,0.5,38.197,0.5L38.197,0.5z" fill="#CCCCCC"/>
<path d="M31.629,49.001H8.298c-0.435,0-0.802-0.501-0.802-1.093L0.995,2.021C0.999,1.499,1.366,1,1.801,1h36.396     C38.633,1,39,1.499,39,2.09l-6.565,45.748C32.431,48.5,32.063,49.001,31.629,49.001L31.629,49.001z" fill="#444444"/>
<path d="M31.629,49.001H9.504C9.5,48.977,9.496,48.947,9.496,48.91c0-0.024,0-0.119-0.004-0.142L3.003,3h35.86     l-6.429,44.838C32.431,48.5,32.063,49.001,31.629,49.001L31.629,49.001z" fill="#959595"/>
</g>
<path d="M38.197,0.5H1.801C1.083,0.5,0.5,1.212,0.5,2.09l6.497,45.819    c0,0.877,0.583,1.591,1.301,1.591h23.33c0.72,0,1.302-0.713,1.302-1.591L39.5,2.09C39.5,1.212,38.915,0.5,38.197,0.5L38.197,0.5z" display="none" fill="url(#SVGID_1_)"/>
<polygon display="none" fill="none" points="8.298,47.909 31.628,47.909 38.197,2.09 1.801,2.09   "/>
<defs>
<linearGradient gradientTransform="matrix(1 0 0 -1 1202.52 1650.5801)" gradientUnits="userSpaceOnUse" id="SVGID_1_" x1="-1163.021" x2="-1202.021" y1="1625.5811" y2="1625.5811">
<stop offset="0" style="stop-color:#E1EBF4"/>
<stop offset="1" style="stop-color:#F9FCFF"/>
</linearGradient>
</defs>
</g>
</g>
</svg>
