<?xml version="1.0" encoding="UTF-8"?>
<!DOCTYPE svg PUBLIC "-//W3C//DTD SVG 1.1 Tiny//EN" "http://www.w3.org/Graphics/SVG/1.1/DTD/svg11-tiny.dtd">
<svg baseProfile="tiny" height="50px" version="1.1" viewBox="0 0 40 50" width="40px" x="0px" xmlns="http://www.w3.org/2000/svg" xmlns:xlink="http://www.w3.org/1999/xlink" y="0px">
<g>
<rect fill="none" height="50" width="40"/>
<g>
<path d="M1.801,49.5h36.398c0.719,0,1.301-0.712,1.301-1.591L39.458,2.09c0-0.878-0.581-1.59-1.3-1.59H8.299    c-0.716,0-1.3,0.712-1.3,1.59L0.5,47.909C0.5,48.788,1.084,49.5,1.801,49.5L1.801,49.5z" fill="#E6E6E6"/>
<path d="M38.199,49.001H1.801c-0.436,0-0.802-0.501-0.802-1.093L7.494,2.161C7.498,1.499,7.865,1,8.298,1h29.86    c0.434,0,0.801,0.499,0.801,1.091L39,47.908C39,48.5,38.633,49.001,38.199,49.001L38.199,49.001z" fill="#E6E6E6"/>
<polygon fill="#E6E6E6" points="37.699,47.411 2.376,47.411 8.733,2.59 37.66,2.59 37.699,47.411   "/>
<path d="M1.801,49.5h36.398c0.719,0,1.301-0.712,1.301-1.591L39.458,2.09c0-0.878-0.581-1.59-1.3-1.59H8.299    c-0.716,0-1.3,0.712-1.3,1.59L0.5,47.909C0.5,48.788,1.084,49.5,1.801,49.5L1.801,49.5z" fill="#CCCCCC"/>
<path d="M38.199,49.001H1.801c-0.436,0-0.802-0.501-0.802-1.093    L7.494,2.161C7.498,1.499,7.865,1,8.298,1h29.86c0.434,0,0.801,0.499,0.801,1.091L39,47.908C39,48.5,38.633,49.001,38.199,49.001    L38.199,49.001z" fill="#E6E6E6" fill-opacity="0.5" stroke-opacity="0.5"/>
</g>
</g>
</svg>
