<?xml version="1.0" encoding="utf-8"?>
<!-- Generator: Adobe Illustrator 14.0.0, SVG Export Plug-In . SVG Version: 6.00 Build 43363)  -->
<!DOCTYPE svg PUBLIC "-//W3C//DTD SVG 1.1//EN" "http://www.w3.org/Graphics/SVG/1.1/DTD/svg11.dtd">
<svg version="1.1" id="Layer_1" xmlns="http://www.w3.org/2000/svg" xmlns:xlink="http://www.w3.org/1999/xlink" x="0px" y="0px"
	 width="24px" height="24px" viewBox="0 0 24 24" enable-background="new 0 0 24 24" xml:space="preserve">
<g enable-background="new    ">
	<path d="M8.466,3.387h1.37l4.794,12.501h-1.216l-1.404-3.812H6.326l-1.438,3.812H3.673L8.466,3.387z M11.6,11.044L9.134,4.607
		L6.72,11.044H11.6z"/>
</g>
<g enable-background="new    ">
	<path d="M18.289,14.889c-0.031,1.147-0.355,2.188-0.971,3.119c-0.602,0.903-1.426,1.607-2.474,2.112l-0.466-0.458
		c0.922-0.35,1.667-0.867,2.236-1.555c0.631-0.754,0.992-1.666,1.082-2.736h-2.789v-0.482H18.289z M20.446,13.766
		c0.121,0,0.19,0.017,0.206,0.05c0.01,0.022,0,0.062-0.032,0.116l-0.032,0.1v3.336h1.289v0.482h-1.289v3.285h-0.537v-7.369H20.446z"
		/>
</g>
</svg>
