<?xml version="1.0" encoding="UTF-8" standalone="no"?>
<!DOCTYPE svg PUBLIC "-//W3C//DTD SVG 1.1 Tiny//EN" "http://www.w3.org/Graphics/SVG/1.1/DTD/svg11-tiny.dtd">
<svg xmlns="http://www.w3.org/2000/svg" xmlns:xlink="http://www.w3.org/1999/xlink" width="24" height="24" viewBox="0 0 24 24">
<rect fill="none" height="24" width="24"/>
<path d="M14.182,2.255L14.182,2.255c-0.334-0.091-0.681-0.137-1.024-0.137c0.006-0.002-0.005,0-0.007,0 c-1.333-0.002-2.69,0.712-3.531,2.324C8.774,2.828,7.4,2.114,6.065,2.115L6.052,2.116c-0.001,0-0.004,0-0.006,0 c-0.001,0-0.002,0-0.002,0c-0.002,0-0.005,0-0.009,0.001C5.694,2.12,5.36,2.167,5.033,2.255C3.558,2.645,1.999,3.909,2,6.147 c0.001,0-0.001,0.01,0.002,0.023C2,6.169,2,6.18,2,6.192C1.999,6.367,2.01,6.546,2.033,6.733c0.275,2.351,2.673,4.037,4.399,5.177 c1.637,1.06,2.824,2.586,2.963,3.113c0.027,0.096,0.115,0.16,0.213,0.16c0.097,0,0.183-0.064,0.211-0.158 c0.141-0.529,1.327-2.057,2.963-3.115c1.729-1.142,4.091-2.888,4.397-5.177c0.027-0.221,0.041-0.432,0.041-0.637 C17.225,3.89,15.645,2.643,14.182,2.255z M16.084,6.196L16.084,6.196L16.084,6.196L16.084,6.196z"/>
<path d="M17.552,8.745v8.853c-0.144-0.06-0.303-0.104-0.478-0.13c-1.271-0.186-2.85,0.654-3.525,1.877 c-0.676,1.22-0.193,2.359,1.076,2.544c1.271,0.186,2.848-0.652,3.523-1.873c0.281-0.507,0.359-0.998,0.27-1.412l0,0l0.014-1.947 l0.012-4.939c3.769,1.453,3.08,4.039,1.877,6.293l0.373,0.258c0.933-1.451,1.488-3.444,1.252-4.596 c-0.541-2.387-2.942-3.361-3.555-3.925c-0.268-0.245-0.461-0.637-0.594-1.001"/>
</svg>