<?xml version="1.0" encoding="utf-8"?>
<!-- Generator: Adobe Illustrator 14.0.0, SVG Export Plug-In . SVG Version: 6.00 Build 43363)  -->
<!DOCTYPE svg PUBLIC "-//W3C//DTD SVG 1.1//EN" "http://www.w3.org/Graphics/SVG/1.1/DTD/svg11.dtd">
<svg version="1.1" id="Layer_1" xmlns="http://www.w3.org/2000/svg" xmlns:xlink="http://www.w3.org/1999/xlink" x="0px" y="0px"
	 width="24px" height="24px" viewBox="0 0 24 24" enable-background="new 0 0 24 24" xml:space="preserve">
<g enable-background="new    ">
	<path d="M9.924,5.403C9.869,7.29,9.309,8.999,8.242,10.53c-1.039,1.485-2.466,2.644-4.279,3.472L3.156,13.25
		c1.595-0.574,2.885-1.426,3.869-2.556c1.094-1.239,1.718-2.739,1.873-4.498H4.072V5.403H9.924z M13.656,3.557
		c0.209,0,0.328,0.027,0.355,0.082c0.018,0.036,0,0.101-0.055,0.191l-0.055,0.164v5.482h2.229v0.793h-2.229v5.4h-0.93V3.557H13.656z
		"/>
</g>
<g enable-background="new    ">
	<path d="M17.832,13.803h0.781l2.734,7.207h-0.693l-0.801-2.197h-3.242l-0.82,2.197h-0.693L17.832,13.803z M19.619,18.217
		l-1.406-3.711l-1.377,3.711H19.619z"/>
</g>
</svg>
