<?xml version="1.0" encoding="utf-8"?>
<!-- Generator: Adobe Illustrator 14.0.0, SVG Export Plug-In . SVG Version: 6.00 Build 43363)  -->
<!DOCTYPE svg PUBLIC "-//W3C//DTD SVG 1.1 Tiny//EN" "http://www.w3.org/Graphics/SVG/1.1/DTD/svg11-tiny.dtd">
<svg version="1.1" baseProfile="tiny" id="Layer_1" xmlns="http://www.w3.org/2000/svg" xmlns:xlink="http://www.w3.org/1999/xlink"
	 x="0px" y="0px" width="24px" height="24px" viewBox="0 0 24 24" xml:space="preserve">
<g>
	<path d="M9.033,6.191c0.3-0.804,0.804-1.739,2.243-1.739c1.319,0,2.471,0.875,2.471,2.699c0,1.919-2.831,5.589-4.737,7.592
		c-1.907-1.871-4.653-5.433-4.653-7.82c0-1.367,0.995-2.471,2.422-2.471c1.403,0,1.931,0.912,2.231,1.667L9.033,6.191z"/>
</g>
<g>
	<path d="M13.859,11.892l5.901-1.283v6.62c0,0.684-0.9,2.015-1.8,2.015c-0.396,0-0.743-0.264-0.743-0.695
		c0-0.348,0.24-0.804,0.875-1.308c0.84-0.539,1.296-0.096,1.296-0.623v-2.771l-5.146,1.151v3.19c0,1.295-1.188,2.362-2.254,2.362
		c-0.336,0-0.54-0.228-0.54-0.54c0-0.432,0.372-1.031,1.259-1.451c0.744-0.252,1.151-0.012,1.151-0.731V11.892z M14.243,13.763
		l5.146-1.212v-0.599l-5.146,1.139V13.763z"/>
</g>
</svg>
