<?xml version="1.0" encoding="UTF-8"?>
<!DOCTYPE svg PUBLIC "-//W3C//DTD SVG 1.1 Tiny//EN" "http://www.w3.org/Graphics/SVG/1.1/DTD/svg11-tiny.dtd">
<svg baseProfile="tiny" height="50px" version="1.1" viewBox="0 0 40 50" width="40px" x="0px" xmlns="http://www.w3.org/2000/svg" xmlns:xlink="http://www.w3.org/1999/xlink" y="0px">
<g>
<rect fill="none" height="50" width="40"/>
<g>
<path d="M38.197,49.5H1.801c-0.718,0-1.301-0.712-1.301-1.59L6.997,2.091C6.997,1.213,7.58,0.5,8.298,0.5h23.33    c0.72,0,1.302,0.713,1.302,1.591L39.5,47.91C39.5,48.788,38.915,49.5,38.197,49.5L38.197,49.5z" fill="#CCCCCC"/>
<path d="M38.197,49.001H1.801c-0.436,0-0.802-0.499-0.802-1.091l6.493-45.75C7.496,1.499,7.863,1,8.298,1h23.331    c0.435,0,0.802,0.499,0.802,1.091l6.573,45.89C39,48.502,38.633,49.001,38.197,49.001L38.197,49.001z" fill="#E6E6E6"/>
<polygon fill="#E6E6E6" points="37.619,47.411 2.376,47.411 8.734,2.59 31.194,2.59 37.619,47.411   "/>
</g>
</g>
</svg>
