<?xml version="1.0" encoding="UTF-8"?>
<!DOCTYPE svg PUBLIC "-//W3C//DTD SVG 1.1 Tiny//EN" "http://www.w3.org/Graphics/SVG/1.1/DTD/svg11-tiny.dtd">
<svg width="28" height="30" viewBox="0 0 28 30">
<rect fill="#A2C2DD" width="28" height="30"/>
<linearGradient id="_3" gradientUnits="userSpaceOnUse" x1="0.47" y1="15" x2="27.53" y2="15">
<stop stop-color="#1B4577" offset="0"/>
<stop stop-color="#496DA2" offset="1"/>
</linearGradient>
<path fill="url(#_3)" d="M27.533,26.466c0,1.677-1.335,3.034-2.984,3.034H3.586c-1.648,0-2.983-1.357-3.119-3.034V3.472 c0.136-1.674,1.471-3.032,3.048-2.97h20.964c1.72-0.063,3.055,1.296,3.055,2.97V26.466z"/>
<linearGradient id="_4" gradientUnits="userSpaceOnUse" x1="14" y1="1.37" x2="14" y2="28.63">
<stop stop-color="#1B4577" offset="0"/>
<stop stop-color="#496DA2" offset="1"/>
</linearGradient>
<path fill="url(#_4)" d="M24.602,1.375c-0.012,0-21.178,0-21.178,0C2.34,1.331,1.41,2.266,1.314,3.453l0.004,23.114 c0.092,1.12,1.052,2.06,2.177,2.06H24.64c1.127,0,2.042-0.925,2.042-2.06V3.372c0-0.546-0.206-1.05-0.582-1.426 C25.707,1.556,25.175,1.354,24.602,1.375z"/>
<path fill="#FFFFFF" d="M25.402,10.718l-1.177-1.979c-0.368-0.623-1.172-0.827-1.796-0.457l-0.557,0.343V8.294 c0-0.722-0.586-1.309-1.309-1.309H5.644c-0.725,0-1.31,0.587-1.31,1.309v13.412c0,0.726,0.585,1.311,1.31,1.311h14.921 c0.723,0,1.309-0.585,1.309-1.311V14.4l3.072-1.889C25.243,12.336,25.941,11.586,25.402,10.718z"/>
<path fill="#6C8EB7" d="M12.373,14.646c0.108-0.189,0.268-0.349,0.458-0.46l4.545-2.796h-1.428V9.376h3.599v0.68l1.018-0.626 V8.294H5.644v13.412h14.921v-6.501l-1.018,0.626v1.753h-2.851l-1.353,0.832c-0.187,0.111-0.396,0.173-0.611,0.185l-2.405,0.104 c-0.479,0.021-1.82-0.501-1.186-1.975L12.373,14.646z M11.308,9.376h3.599v2.015h-3.599V9.376z M15.948,18.754h3.599v2.018h-3.599 V18.754z M10.288,11.391H6.691V9.376h3.597V11.391z"/>
<polygon fill="#6C8EB7" points="13.5,15.312 12.271,17.394 14.674,17.29 24.276,11.387 23.101,9.408 "/>
</svg>