<?xml version="1.0" encoding="UTF-8"?>
<!DOCTYPE svg PUBLIC "-//W3C//DTD SVG 1.1 Tiny//EN" "http://www.w3.org/Graphics/SVG/1.1/DTD/svg11-tiny.dtd">
<svg baseProfile="tiny" height="32px" version="1.1" viewBox="0 0 32 32" width="32px" x="0px" xmlns="http://www.w3.org/2000/svg" xmlns:xlink="http://www.w3.org/1999/xlink" y="0px">
<g>
<rect fill="none" height="32" width="32"/>
<path d="M27.849,19.056v-2.559l0.002-8.271H5.151H4.149v1.002v2.617v1h0.002v0.037v2.559l0,0v1v2.615v0.105v0.895v0.105v2.613v1   h0.998H8.69h0.016H9.69h0.016h12.588h0.016h0.984h0.016h3.539h1v-1v-2.613v-1l0,0V19.056z M8.706,22.776H5.151v-2.615h3.555V22.776   z M8.706,19.056H5.151V16.44h3.555V19.056z M8.706,15.499H5.151v-2.615h3.555V15.499z M8.706,11.843H5.151V9.228h3.555V11.843z    M14.214,9.228h3.555v2.615h-3.555V9.228z M14.214,12.884h3.555v2.615h-3.555V12.884z M14.214,16.44h3.555v2.615h-3.555V16.44z    M9.69,9.228h3.555v2.615H9.69V9.228z M9.69,12.884h3.555v2.615H9.69V12.884z M9.69,16.44h3.555v2.615H9.69V16.44z M22.31,22.776   H9.69v-2.615H22.31V22.776z M22.31,19.056h-3.555V16.44h3.555V19.056z M22.31,15.499h-3.555v-2.615h3.555V15.499z M22.31,11.843   h-3.555V9.228h3.555V11.843z M26.849,22.776h-3.555v-2.615h3.555V22.776z M26.849,19.056h-3.555V16.44h3.555V19.056z    M26.849,15.499h-3.555v-2.615h3.555V15.499z M26.849,11.843h-3.555V9.228h3.555V11.843z"/>
</g>
</svg>
