<?xml version="1.0" encoding="UTF-8"?>
<!DOCTYPE svg PUBLIC "-//W3C//DTD SVG 1.1 Tiny//EN" "http://www.w3.org/Graphics/SVG/1.1/DTD/svg11-tiny.dtd">
<svg width="28" height="30" viewBox="0 0 28 30">
<rect fill="#A2C2DD" width="28" height="30"/>
<linearGradient id="_3" gradientUnits="userSpaceOnUse" x1="0.5" y1="15" x2="27.5" y2="15">
<stop stop-color="#1B4577" offset="0"/>
<stop stop-color="#496DA2" offset="1"/>
</linearGradient>
<path fill="url(#_3)" d="M27.5,26.466c0,1.677-1.332,3.034-2.979,3.034H3.611c-1.648,0-2.979-1.357-3.111-3.034V3.472 c0.132-1.675,1.463-3.032,3.032-2.97h20.923c1.713-0.063,3.045,1.295,3.045,2.97V26.466z"/>
<linearGradient id="_4" gradientUnits="userSpaceOnUse" x1="14" y1="1.37" x2="14" y2="28.63">
<stop stop-color="#1B4577" offset="0"/>
<stop stop-color="#496DA2" offset="1"/>
</linearGradient>
<path fill="url(#_4)" d="M24.573,1.374c-0.013,0-21.12,0-21.12,0C2.372,1.332,1.436,2.266,1.344,3.453v23.114 c0.092,1.12,1.055,2.061,2.175,2.061h21.095c1.12,0,2.043-0.926,2.043-2.061V3.372c0-0.546-0.211-1.05-0.58-1.426 C25.681,1.556,25.153,1.354,24.573,1.374z"/>
<path fill="#FFFFFF" d="M9.613,10.472l-5.896,3.412c-1.395,0.9-0.397,1.998,0,2.23l5.896,3.414 c0.396,0.229,1.881,0.467,1.926-1.117c0,0,0-0.533,0-1.059c1.982,0,12.178,0,12.178,0c0.707,0,1.283-0.576,1.283-1.287v-2.277 c0-0.711-0.576-1.287-1.283-1.287c0,0-10.195,0-12.178,0c0-0.445,0-0.918,0-0.918C11.45,10.007,10.01,10.241,9.613,10.472z"/>
<polygon fill="#6C8EB7" points="4.321,15.001 10.217,11.586 10.217,13.79 23.679,13.79 23.679,16.067 10.217,16.067 10.217,18.414 "/>
</svg>