<?xml version="1.0" encoding="UTF-8"?>
<!DOCTYPE svg PUBLIC "-//W3C//DTD SVG 1.1 Tiny//EN" "http://www.w3.org/Graphics/SVG/1.1/DTD/svg11-tiny.dtd">
<svg width="32" height="32" viewBox="0 0 32 32">
<path d="M17.766,24.877c-2.475,0-4.344-0.775-5.611-2.324c-1.266-1.549-1.898-3.803-1.898-6.762 c0-2.672,0.686-4.783,2.055-6.338c1.371-1.553,3.344-2.33,5.916-2.33c1.197,0,2.33,0.174,3.398,0.52v2.168 c-1.068-0.348-2.162-0.52-3.279-0.52c-1.564,0-2.744,0.57-3.541,1.713c-0.797,1.145-1.195,2.76-1.195,4.848 c0,2.166,0.4,3.854,1.203,5.061c0.801,1.207,1.979,1.813,3.533,1.813c1.336,0,2.469-0.164,3.398-0.49v2.033 C20.35,24.674,19.023,24.877,17.766,24.877z" fill="#496DA2"/>
</svg>