<?xml version="1.0" encoding="UTF-8"?>
<!DOCTYPE svg PUBLIC "-//W3C//DTD SVG 1.1 Tiny//EN" "http://www.w3.org/Graphics/SVG/1.1/DTD/svg11-tiny.dtd">
<svg width="28" height="30" viewBox="0 0 28 30">
<rect fill="#A2C2DD" width="28" height="30"/>
<linearGradient id="_3" gradientUnits="userSpaceOnUse" x1="0.5" y1="15" x2="27.5" y2="15">
<stop stop-color="#1B4577" offset="0"/>
<stop stop-color="#496DA2" offset="1"/>
</linearGradient>
<path fill="url(#_3)" d="M27.5,26.465c0,1.678-1.331,3.035-2.977,3.035H3.611c-1.644,0-2.977-1.357-3.111-3.035V3.472 c0.135-1.677,1.468-3.032,3.039-2.97h20.914c1.716-0.063,3.047,1.293,3.047,2.97V26.465z"/>
<linearGradient id="_4" gradientUnits="userSpaceOnUse" x1="14" y1="1.37" x2="14" y2="28.63">
<stop stop-color="#1B4577" offset="0"/>
<stop stop-color="#496DA2" offset="1"/>
</linearGradient>
<path fill="url(#_4)" d="M24.576,1.372c-0.012,0-21.127,0-21.127,0c-1.08-0.042-2.008,0.892-2.104,2.08L1.35,26.565 c0.093,1.122,1.049,2.062,2.172,2.062h21.092c1.125,0,2.037-0.925,2.037-2.062V3.371C26.652,2.535,26.095,1.357,24.576,1.372z"/>
</svg>